<svg width="32" height="32" viewBox="0 0 32 32" fill="none" xmlns="http://www.w3.org/2000/svg">
<g id="32 / eyedropper">
<g id="color_dropper">
<path id="Vector" d="M22.4473 9.6C21.6473 8.8 20.4473 8.8 19.6473 9.6L16.8472 12.4L16.0472 11.7C15.6472 11.3 15.0472 11.3 14.6472 11.7C14.2472 12.1 14.2472 12.7 14.6472 13.1L15.3472 13.8L9.54725 19.6C9.14725 20 8.54725 21.5 9.54725 22.5C10.5472 23.5 12.0472 22.9 12.4472 22.5L18.2472 16.7L18.9473 17.4C19.3473 17.8 19.9473 17.8 20.3473 17.4C20.7473 17 20.7473 16.4 20.3473 16L19.6473 15.3L22.4473 12.5C23.2473 11.6 23.2473 10.4 22.4473 9.6ZM11.5472 21.5H10.5472V20.5L16.3472 14.7L17.3472 15.7C17.2472 15.7 11.5472 21.5 11.5472 21.5Z" fill="black" fill-opacity="0.8"/>
</g>
</g>
</svg>
