<svg width="32" height="32" viewBox="0 0 32 32" fill="none" xmlns="http://www.w3.org/2000/svg">
<g id="32 / hyperlink">
<g id="16 / hyperlink">
<path id="Union" fill-rule="evenodd" clip-rule="evenodd" d="M13.5 18C15.4593 18 17.1262 16.7478 17.7439 15H18.793C18.14 17.3085 16.0176 19 13.5 19C10.4624 19 8 16.5376 8 13.5C8 10.4624 10.4624 8 13.5 8C16.0176 8 18.14 9.6915 18.793 12H17.7439C17.1262 10.2522 15.4593 9 13.5 9C11.0147 9 9 11.0147 9 13.5C9 15.9853 11.0147 18 13.5 18ZM18.5 23C20.9853 23 23 20.9853 23 18.5C23 16.0147 20.9853 14 18.5 14C16.5407 14 14.8738 15.2522 14.2561 17H13.207C13.86 14.6915 15.9824 13 18.5 13C21.5376 13 24 15.4624 24 18.5C24 21.5376 21.5376 24 18.5 24C15.9824 24 13.86 22.3085 13.207 20H14.2561C14.8738 21.7478 16.5407 23 18.5 23Z" fill="black" fill-opacity="0.8"/>
</g>
</g>
</svg>
