<svg width="32" height="32" viewBox="0 0 32 32" fill="none" xmlns="http://www.w3.org/2000/svg">
<g id="32 / library">
<path id="Union" fill-rule="evenodd" clip-rule="evenodd" d="M15.3732 22H16.6311C16.9113 21.6798 17.2468 21.4026 17.6261 21.1813C19.1045 20.319 21.631 20.2723 23.0125 21.2898H23.5H24.5V20.2898V12.0898C24.5 12.0898 23.7031 9.83984 20.08 9.83984C18.2054 9.83984 17.1784 10.4422 16.6237 11.0236C16.2354 11.4307 16.0786 11.8275 16.0246 12H15.9755C15.9214 11.8275 15.7647 11.4307 15.3763 11.0236C14.8217 10.4422 13.7947 9.83984 11.92 9.83984C8.29688 9.83984 7.5 12.0898 7.5 12.0898V20.2798V21.2798H8.5H8.9875C10.3702 20.2614 12.8989 20.31 14.3762 21.1754C14.7568 21.3983 15.0929 21.6775 15.3732 22ZM16.5 12.2888V20.7456C16.6952 20.5885 16.9032 20.4454 17.1222 20.3176C18.0494 19.7767 19.2368 19.5218 20.3634 19.5306C21.3691 19.5385 22.4441 19.758 23.3152 20.2898H23.5V12.3168C23.491 12.3013 23.481 12.2846 23.47 12.2668C23.3839 12.1286 23.2344 11.9281 22.9955 11.7221C22.535 11.3248 21.6653 10.8398 20.08 10.8398C18.4938 10.8398 17.7397 11.3235 17.3855 11.6748C17.1974 11.8615 17.0904 12.0419 17.0325 12.1647C17.0035 12.2262 16.9872 12.2725 16.9797 12.2963C16.9759 12.3081 16.9744 12.3141 16.9746 12.3132L16.9762 12.3066L16.9778 12.2992L16.9789 12.2944L16.9794 12.2917L16.9797 12.2903C16.9797 12.2902 16.9798 12.29 16.9745 12.2888H16.5ZM15.5 12.2888H15.0255C15.0202 12.29 15.0203 12.2902 15.0203 12.2903L15.0206 12.2917L15.0211 12.2944L15.0222 12.2992L15.0238 12.3066L15.0254 12.3132C15.0256 12.3141 15.0241 12.3081 15.0203 12.2963C15.0128 12.2725 14.9965 12.2262 14.9675 12.1647C14.9096 12.0419 14.8026 11.8615 14.6145 11.6748C14.2603 11.3235 13.5062 10.8398 11.92 10.8398C10.3347 10.8398 9.46506 11.3248 9.00449 11.7221C8.76559 11.9281 8.61608 12.1286 8.53006 12.2668C8.51898 12.2846 8.50898 12.3013 8.5 12.3168V20.2798H8.68483C9.55673 19.7475 10.6328 19.5283 11.6393 19.5212C12.7667 19.5133 13.9547 19.7696 14.8817 20.3126C15.0993 20.4401 15.306 20.5828 15.5 20.7392V12.2888Z" fill="black" fill-opacity="0.8"/>
</g>
</svg>
