<svg width="32" height="32" viewBox="0 0 32 32" fill="none" xmlns="http://www.w3.org/2000/svg">
<g id="32 / resize_to_fit">
<path id="Union" fill-rule="evenodd" clip-rule="evenodd" d="M8.64645 9.35356L12.2929 13H10V14H13.5H14V13.5V10H13V12.2929L9.35356 8.64645L8.64645 9.35356ZM19.7071 13L23.3536 9.35356L22.6465 8.64645L19 12.2929V10H18V13.5V14H18.5H22V13H19.7071ZM19.7071 19L23.3536 22.6465L22.6465 23.3536L19 19.7071V22H18V18.5V18H18.5H22V19H19.7071ZM12.2929 19L8.64645 22.6465L9.35356 23.3536L13 19.7071V22H14V18.5V18H13.5H10V19H12.2929Z" fill="black" fill-opacity="0.8"/>
</g>
</svg>
