<svg width="16" height="16" viewBox="0 0 16 16" fill="none" xmlns="http://www.w3.org/2000/svg">
<g id="16 / swap">
<path id="Union" fill-rule="evenodd" clip-rule="evenodd" d="M14.6096 5.68765L13.4349 7.15603C13.4268 7.10387 13.4179 7.05185 13.4083 7C13.2568 6.18064 12.9202 5.40189 12.4189 4.72539C11.7168 3.77797 10.7289 3.08128 9.6007 2.73808C8.47254 2.39489 7.26395 2.42337 6.15321 2.81933C5.3601 3.10206 4.64686 3.56145 4.06474 4.15764C3.83161 4.3964 3.6195 4.6571 3.43172 4.93718L3.43187 4.93728L4.26232 5.49406L4.26246 5.49416C4.79972 4.69282 5.58029 4.08538 6.48905 3.76143C7.3978 3.43748 8.38661 3.41418 9.30961 3.69496C10.2326 3.97574 11.0409 4.54574 11.6153 5.32088C12.1001 5.97502 12.3966 6.74603 12.4773 7.55063L10.2774 6.08398L9.72265 6.91603L12.7226 8.91603L13.1041 9.1703L13.3904 8.81235L15.3904 6.31235L14.6096 5.68765ZM2.60957 7.18765L0.609566 9.68765L1.39043 10.3123L2.56513 8.84397C2.57323 8.89614 2.58208 8.94815 2.59167 9C2.74317 9.81936 3.07976 10.5981 3.58107 11.2746C4.28315 12.222 5.27114 12.9187 6.3993 13.2619C7.52746 13.6051 8.73605 13.5766 9.84679 13.1807C10.6399 12.8979 11.3531 12.4386 11.9353 11.8424C12.1679 11.6041 12.3796 11.344 12.5671 11.0646L12.5683 11.0628L12.5681 11.0627L11.7377 10.5059L11.7375 10.5058L11.7365 10.5074C11.1993 11.308 10.4191 11.9148 9.51095 12.2386C8.6022 12.5625 7.61339 12.5858 6.69039 12.305C5.76738 12.0243 4.95906 11.4543 4.38465 10.6791C3.8999 10.025 3.60341 9.25397 3.52266 8.44937L5.72265 9.91603L6.27735 9.08398L3.27735 7.08398L2.89593 6.8297L2.60957 7.18765Z" fill="black" fill-opacity="0.8"/>
</g>
</svg>
