<svg width="16" height="16" viewBox="0 0 16 16" fill="none" xmlns="http://www.w3.org/2000/svg">
<g id="16 / text-transform-lower">
<path id="ab" d="M4.15869 12.1406C5.20557 12.1406 5.75244 11.5781 5.93994 11.1875H5.98682V12H6.90869V8.04688C6.90869 6.14062 5.45557 5.92188 4.68994 5.92188C3.78369 5.92188 2.75244 6.23437 2.28369 7.32812L3.15869 7.64062C3.36182 7.20312 3.84229 6.73437 4.72119 6.73437C5.57666 6.73437 5.98682 7.19141 5.98682 7.96875C5.98682 8.41406 5.53369 8.39062 4.43994 8.53125C3.32666 8.67578 2.11182 8.92187 2.11182 10.2969C2.11182 11.4687 3.01807 12.1406 4.15869 12.1406ZM4.29932 11.3125C3.56494 11.3125 3.03369 10.9844 3.03369 10.3437C3.03369 9.64062 3.67432 9.42188 4.39307 9.32812C4.78369 9.28125 5.83057 9.17187 5.98682 8.98437V9.82812C5.98682 10.5781 5.39307 11.3125 4.29932 11.3125ZM8.59131 12H9.48193V11.0781H9.59131C9.79443 11.4062 10.1851 12.125 11.3413 12.125C12.8413 12.125 13.8882 10.9219 13.8882 9.01563C13.8882 7.125 12.8413 5.92188 11.3257 5.92188C10.1538 5.92188 9.79443 6.64062 9.59131 6.95312H9.51318V4H8.59131V12ZM9.49756 9C9.49756 7.65625 10.0913 6.75 11.2163 6.75C12.3882 6.75 12.9663 7.73437 12.9663 9C12.9663 10.2812 12.3726 11.2969 11.2163 11.2969C10.1069 11.2969 9.49756 10.3594 9.49756 9Z" fill="black" fill-opacity="0.8"/>
</g>
</svg>
