<svg width="16" height="16" viewBox="0 0 16 16" fill="none" xmlns="http://www.w3.org/2000/svg">
<g id="16 / text-transform-upper">
<path id="Union" fill-rule="evenodd" clip-rule="evenodd" d="M1.04883 12L3.84883 4H5.15236L7.95236 12H6.99883L6.29883 10L2.70236 10L2.00236 12H1.04883ZM4.50059 4.86219L5.94883 9L3.05236 9.00001L4.50059 4.86219ZM11.8912 12H9.00059V4H11.7975C13.4693 4 14.2506 4.95313 14.2506 6.125C14.2506 7.15625 13.6412 7.60937 12.9537 7.79688V7.875C13.6881 7.92187 14.5631 8.60938 14.5631 9.875C14.5631 11.0781 13.7818 12 11.8912 12ZM10.0006 8.35938V11H11.9225C13.0006 11 13.5458 10.5781 13.5458 9.875C13.5458 9.0625 12.985 8.35938 11.9381 8.35938H10.0006ZM10.0006 5V7.51562H11.7662C12.6412 7.51562 13.2761 6.96875 13.2761 6.125C13.2761 5.42188 12.8358 5 11.8287 5H10.0006Z" fill="black" fill-opacity="0.8"/>
</g>
</svg>
